<svg id="bag" xmlns="http://www.w3.org/2000/svg" width="18.636" height="20.125" viewBox="0 0 18.636 20.125">
  <path id="Path_4168" data-name="Path 4168" d="M269.158,297.795h-1.3v-1.3a.335.335,0,1,0-.669,0v1.3h-1.378a.335.335,0,1,0,0,.669h1.378v1.378a.335.335,0,1,0,.669,0v-1.378h1.3a.335.335,0,0,0,0-.669Zm0,0" transform="translate(-252.808 -282.002)" fill="#fff"/>
  <path id="Path_4169" data-name="Path 4169" d="M15.726,12.25,14.6,5.876a1.315,1.315,0,0,0-1.3-1.113H12.057V3.6a3.6,3.6,0,0,0-7.194,0V4.762H3.629A1.315,1.315,0,0,0,2.324,5.876L.481,16.278a.324.324,0,0,0-.005.058,2.311,2.311,0,0,0,2.309,2.309h9.283a3.958,3.958,0,1,0,3.658-6.394ZM5.533,3.6a2.927,2.927,0,0,1,5.855,0V4.762H5.533ZM1.146,16.364,2.984,5.989V5.983a.649.649,0,0,1,.644-.551H4.863V7.25a.335.335,0,0,0,.669,0V5.432h5.855V7.25a.335.335,0,0,0,.669,0V5.432h1.234a.649.649,0,0,1,.644.551v.006l1.1,6.222a3.959,3.959,0,0,0-3.407,5.764H2.785a1.641,1.641,0,0,1-1.639-1.611Zm14.008,3.091a3.289,3.289,0,0,1,0-6.577c.086,0,.174,0,.26.01a3.289,3.289,0,0,1-.26,6.567Zm0,0" transform="translate(-0.476 0)" fill="#fff"/>
</svg>
