<svg id="car-service" xmlns="http://www.w3.org/2000/svg" width="68.434" height="68.434" viewBox="0 0 68.434 68.434">
  <path id="Path_10771" data-name="Path 10771" d="M4.311,21.972H1V19.764H3.572L8.765,7.151A9.9,9.9,0,0,1,17.951,1h17.98a9.9,9.9,0,0,1,8.341,4.537L53.579,19.92l15.053,4.3a1.1,1.1,0,0,1,.8,1.061V39.632a1.1,1.1,0,0,1-1.1,1.1H62.746a9.93,9.93,0,0,1-19.738,0H39.486l-.6.9a15.3,15.3,0,0,0,0,16.974l.806,1.21A6.187,6.187,0,0,1,31.118,68.4l-.751-.5a17.159,17.159,0,0,0-3.979-1.95v3.489H24.18V65.019a1.105,1.105,0,0,1,.491-.918l6.13-4.087V56.189a1.1,1.1,0,0,0-2.208,0V59.5H26.387V45.151a1.1,1.1,0,1,0-2.208,0v7.726H21.972V42.943a1.1,1.1,0,0,0-2.208,0v9.934H17.557V45.151a1.1,1.1,0,0,0-2.208,0v7.726H13.141V49.566a1.1,1.1,0,1,0-2.208,0V61.25l1.884,1.884a1.1,1.1,0,0,1,.323.78v5.519H10.934V68.184l-.315.21a6.187,6.187,0,0,1-8.581-8.579l.806-1.21a15.248,15.248,0,0,0,2.571-8.488,15.25,15.25,0,0,0-2.57-8.487l-.806-1.21a6.187,6.187,0,0,1,8.579-8.581l.751.5a17.124,17.124,0,0,0,19,0l.751-.5a6.162,6.162,0,0,1,9.412,6.687h2.48a9.93,9.93,0,0,1,19.738,0h4.48V31.906H63.915a1.1,1.1,0,0,1-1.1-1.1V24.854L52.575,21.929a1.1,1.1,0,0,1-.624-.461L42.419,6.736a7.7,7.7,0,0,0-6.488-3.529H17.951a7.7,7.7,0,0,0-7.145,4.785l-5.475,13.3a1.1,1.1,0,0,1-1.02.683ZM34.549,33.009a3.97,3.97,0,0,0-2.208.668l-.751.5a19.331,19.331,0,0,1-21.446,0l-.751-.5A3.979,3.979,0,0,0,3.875,39.2l.806,1.21a17.441,17.441,0,0,1,2.942,9.712,17.449,17.449,0,0,1-2.94,9.712l-.806,1.21a3.979,3.979,0,0,0,5.518,5.519l.751-.5c.257-.171.525-.322.789-.48V64.373L9.05,62.489a1.105,1.105,0,0,1-.323-.781V49.566a3.315,3.315,0,0,1,3.311-3.311,3.274,3.274,0,0,1,1.1.2V45.151a3.3,3.3,0,0,1,4.543-3.068,3.293,3.293,0,0,1,6.367,0,3.3,3.3,0,0,1,4.543,3.068V53.08a3.274,3.274,0,0,1,1.1-.2,3.315,3.315,0,0,1,3.311,3.311V60.6a1.105,1.105,0,0,1-.491.918l-4.2,2.8a19.344,19.344,0,0,1,3.27,1.737l.751.5A3.979,3.979,0,0,0,37.86,61.04l-.806-1.21a17.507,17.507,0,0,1,0-19.424l.806-1.21a3.98,3.98,0,0,0-3.31-6.187Zm18.328-1.1A7.726,7.726,0,1,0,60.6,39.632,7.736,7.736,0,0,0,52.877,31.906ZM65.019,29.7h2.208V26.115l-2.208-.63Z" transform="translate(-1 -1)"/>
  <path id="Path_10772" data-name="Path 10772" d="M16.519,42.038a5.519,5.519,0,1,1,5.519-5.519A5.525,5.525,0,0,1,16.519,42.038Zm0-8.83a3.311,3.311,0,1,0,3.311,3.311A3.315,3.315,0,0,0,16.519,33.208Z" transform="translate(35.358 2.113)"/>
  <path id="Path_10773" data-name="Path 10773" d="M21.194,21.078a1.1,1.1,0,0,1-.12-1.021L25.5,8.538A5.554,5.554,0,0,1,30.654,5H47.231a5.486,5.486,0,0,1,4.7,2.627l7.537,12.247a1.1,1.1,0,0,1-.94,1.682H22.1A1.1,1.1,0,0,1,21.194,21.078ZM50.051,8.784a3.291,3.291,0,0,0-2.82-1.576H40.868V19.349H56.553ZM38.66,19.349V7.208H30.654A3.334,3.334,0,0,0,27.564,9.33L23.711,19.349Z" transform="translate(-13.273 -0.585)"/>
  <path id="Path_10774" data-name="Path 10774" d="M40.415,22H36v2.208h4.415Z" transform="translate(-10.613 1.179)"/>
  <path id="Path_10775" data-name="Path 10775" d="M56.415,22H52v2.208h4.415Z" transform="translate(-44.274 1.179)"/>
  <path id="Path_10776" data-name="Path 10776" d="M14.1,56.519A4.42,4.42,0,0,0,18.519,52.1a1.1,1.1,0,0,1,2.208,0,4.42,4.42,0,0,0,4.415,4.415,1.1,1.1,0,1,1,0,2.208,4.42,4.42,0,0,0-4.415,4.415,1.1,1.1,0,0,1-2.208,0A4.42,4.42,0,0,0,14.1,58.726a1.1,1.1,0,0,1,0-2.208Zm5.519,2.966a6.691,6.691,0,0,1,1.862-1.862,6.691,6.691,0,0,1-1.862-1.862,6.691,6.691,0,0,1-1.862,1.862A6.677,6.677,0,0,1,19.623,59.485Z" transform="translate(28.943 4.189)"/>
  <path id="Path_10777" data-name="Path 10777" d="M2.1,49.519A4.42,4.42,0,0,0,6.519,45.1a1.1,1.1,0,0,1,2.208,0,4.42,4.42,0,0,0,4.415,4.415,1.1,1.1,0,1,1,0,2.208,4.42,4.42,0,0,0-4.415,4.415,1.1,1.1,0,0,1-2.208,0A4.42,4.42,0,0,0,2.1,51.726a1.1,1.1,0,1,1,0-2.208Zm5.519,2.966a6.676,6.676,0,0,1,1.862-1.862,6.676,6.676,0,0,1-1.862-1.862,6.676,6.676,0,0,1-1.862,1.862A6.676,6.676,0,0,1,7.623,52.485Z" transform="translate(54.189 3.462)"/>
  <path id="Path_10778" data-name="Path 10778" d="M13.141,8.726a4.42,4.42,0,0,0-4.415,4.415,1.1,1.1,0,1,1-2.208,0A4.42,4.42,0,0,0,2.1,8.726a1.1,1.1,0,0,1,0-2.208A4.42,4.42,0,0,0,6.519,2.1a1.1,1.1,0,0,1,2.208,0,4.42,4.42,0,0,0,4.415,4.415,1.1,1.1,0,1,1,0,2.208ZM7.623,5.761A6.676,6.676,0,0,1,5.761,7.623,6.676,6.676,0,0,1,7.623,9.485,6.676,6.676,0,0,1,9.485,7.623,6.676,6.676,0,0,1,7.623,5.761Z" transform="translate(54.189 -1)"/>
</svg>
