<svg id="cross-black-circular-button" xmlns="http://www.w3.org/2000/svg" width="17.334" height="17.334" viewBox="0 0 17.334 17.334">
  <g id="_x31_0_23_">
    <g id="Group_101" data-name="Group 101">
      <path id="Path_1496" data-name="Path 1496" d="M8.667,0a8.667,8.667,0,1,0,8.667,8.667A8.667,8.667,0,0,0,8.667,0Zm3.064,10.965a.542.542,0,0,1-.766.766l-2.3-2.3L6.359,11.747a.546.546,0,0,1-.772-.772L7.9,8.664l-2.3-2.3A.542.542,0,0,1,6.369,5.6l2.3,2.3,2.328-2.328a.546.546,0,0,1,.772.772L9.436,8.67Z"/>
    </g>
  </g>
</svg>
