<svg xmlns="http://www.w3.org/2000/svg" width="14.353" height="9" viewBox="0 0 14.353 9">
  <path id="Forma_1_copy_4" data-name="Forma 1 copy 4" d="M1314.145,7714.27l-2.159,0c-2.425,0-3.992,1.387-3.992,3.532v1.629h-2.171a.319.319,0,0,0-.34.293v2.359a.319.319,0,0,0,.34.293h2.171v5.954a.319.319,0,0,0,.339.292h2.832a.319.319,0,0,0,.339-.292v-5.954h2.537a.319.319,0,0,0,.34-.293v-2.359a.274.274,0,0,0-.1-.207.373.373,0,0,0-.24-.086H1311.5v-1.38c0-.665.183-1,1.186-1h1.454a.318.318,0,0,0,.339-.292v-2.192A.318.318,0,0,0,1314.145,7714.27Z" transform="translate(-7714.266 1314.484) rotate(-90)" fill="#fff"/>
</svg>
