<svg xmlns="http://www.w3.org/2000/svg" width="65.741" height="17" viewBox="0 0 65.741 17">
  <g id="Group_17" data-name="Group 17" transform="translate(0 -0.059)">
    <g id="WEBSITES_APPLICATIONS_DIGITAL_MARKETING" data-name="WEBSITES APPLICATIONS DIGITAL MARKETING" transform="translate(45.565 7.189)">
      <path id="Path_61" data-name="Path 61" d="M.362-.267l.164,0L.8-1.177l.262.908h.165L1.552-1.4H1.393l-.248.954L.886-1.4H.721L.449-.441.2-1.4H.046ZM2.645-1.4H2.038v1.13h.607V-.39h-.46V-.779H2.6V-.9H2.185v-.377h.46Zm1.189.813c0,.123-.087.2-.233.2H3.34v-.4H3.6C3.74-.789,3.834-.711,3.834-.586ZM3.8-1.093c0,.115-.079.183-.217.183H3.34v-.366h.244C3.729-1.276,3.8-1.2,3.8-1.093Zm.176.521A.282.282,0,0,0,3.758-.85a.264.264,0,0,0,.2-.261c0-.157-.12-.287-.358-.287h-.4V-.269h.421C3.847-.269,3.981-.4,3.981-.572Zm1.262,0c0-.418-.609-.236-.609-.528,0-.121.1-.185.217-.181a.2.2,0,0,1,.219.164h.162a.338.338,0,0,0-.374-.29c-.223,0-.374.126-.374.312,0,.419.61.225.61.529,0,.107-.084.188-.227.188A.209.209,0,0,1,4.634-.57H4.477c0,.186.164.312.39.312A.338.338,0,0,0,5.243-.577Zm.541.308h.147V-1.4H5.784Zm.653-1.009h.309V-.269h.147V-1.278H7.2V-1.4H6.437ZM8.314-1.4H7.707v1.13h.607V-.39h-.46V-.779h.411V-.9H7.854v-.377h.46Zm1.281.823c0-.418-.609-.236-.609-.528,0-.121.1-.185.217-.181a.2.2,0,0,1,.219.164h.162a.338.338,0,0,0-.374-.29c-.223,0-.374.126-.374.312,0,.419.61.225.61.529,0,.107-.084.188-.227.188A.209.209,0,0,1,8.986-.57H8.829c0,.186.164.312.39.312A.338.338,0,0,0,9.595-.577Z" transform="translate(-0.046 1.412)" fill="#c1c1c1"/>
      <path id="Path_62" data-name="Path 62" d="M.9-.269H1.05L.644-1.391H.474L.066-.269H.221L.312-.52H.8ZM.762-.64H.354l.2-.57ZM1.7-.861v-.415h.217c.168,0,.24.078.24.209s-.071.206-.24.206Zm.607-.206c0-.185-.125-.33-.39-.33H1.553V-.269H1.7V-.74h.217C2.2-.74,2.307-.9,2.307-1.067Zm.654.206v-.415h.217c.168,0,.24.078.24.209s-.071.206-.24.206Zm.607-.206c0-.185-.125-.33-.39-.33H2.814V-.269h.147V-.74h.217C3.459-.74,3.569-.9,3.569-1.067Zm.507-.33V-.269h.542v-.12h-.4V-1.4ZM5.1-.269h.147V-1.4H5.1Zm.667-.565a.554.554,0,0,0,.563.575A.531.531,0,0,0,6.854-.6H6.677a.356.356,0,0,1-.346.21.409.409,0,0,1-.413-.447.41.41,0,0,1,.413-.449.355.355,0,0,1,.346.212h.176a.531.531,0,0,0-.523-.342A.556.556,0,0,0,5.767-.834Zm2.387.565H8.31L7.9-1.391h-.17L7.325-.269h.155L7.571-.52h.492ZM8.021-.64H7.613l.2-.57ZM8.6-1.278h.309V-.269h.147V-1.278H9.36V-1.4H8.6ZM9.866-.269h.147V-1.4H9.866Zm1.8-.565A.556.556,0,0,0,11.1-1.41a.557.557,0,0,0-.567.576.557.557,0,0,0,.567.576A.556.556,0,0,0,11.667-.834Zm-.983,0a.411.411,0,0,1,.416-.449.411.411,0,0,1,.416.449.412.412,0,0,1-.416.449A.412.412,0,0,1,10.684-.834ZM12.925-1.4v.9l-.593-.9h-.147v1.13h.147v-.9l.593.9h.147V-1.4Zm1.456.823c0-.418-.609-.236-.609-.528,0-.121.1-.185.217-.181a.2.2,0,0,1,.219.164h.162A.338.338,0,0,0,14-1.412c-.223,0-.374.126-.374.312,0,.419.61.225.61.529,0,.107-.084.188-.227.188a.209.209,0,0,1-.233-.188h-.157c0,.186.164.312.39.312A.338.338,0,0,0,14.381-.577Z" transform="translate(-0.05 4.743)" fill="#c1c1c1"/>
      <path id="Path_63" data-name="Path 63" d="M.505-1.4H.154V-.269H.505A.537.537,0,0,0,1.1-.83.541.541,0,0,0,.505-1.4ZM.3-.39v-.887h.2A.407.407,0,0,1,.954-.83a.4.4,0,0,1-.449.44Zm1.322.121H1.77V-1.4H1.623ZM2.857-1.41a.557.557,0,0,0-.567.576.555.555,0,0,0,.567.575.547.547,0,0,0,.554-.505V-.877H2.8v.12h.45a.381.381,0,0,1-.4.366.409.409,0,0,1-.416-.442.41.41,0,0,1,.416-.444A.36.36,0,0,1,3.2-1.07h.176A.534.534,0,0,0,2.857-1.41ZM3.929-.269h.147V-1.4H3.929Zm.653-1.009h.309V-.269h.147V-1.277h.308V-1.4H4.582ZM6.463-.269h.155L6.212-1.391h-.17L5.634-.269H5.79l.091-.251h.492ZM6.331-.639H5.923l.2-.57Zm.79-.758V-.269h.542v-.12h-.4V-1.4ZM8.9-.269h.147v-.837l.374.837h.1L9.9-1.1v.835h.147v-1.12H9.889l-.414.926L9.06-1.389H8.9Zm2.476,0h.155l-.406-1.122h-.17L10.548-.269H10.7l.091-.251h.492Zm-.133-.371h-.408l.2-.57Zm1.394-.426c0,.126-.073.217-.24.217h-.217v-.427H12.4C12.568-1.276,12.639-1.193,12.639-1.065Zm-.6-.332V-.269h.147V-.73h.178l.269.461h.176l-.283-.473a.318.318,0,0,0,.269-.324c0-.185-.126-.332-.392-.332ZM13.956-.269h.193l-.517-.563.512-.565h-.186l-.466.523V-1.4h-.147V-.269h.147V-.783ZM15.245-1.4h-.607v1.13h.607V-.39h-.46V-.779H15.2V-.9h-.411v-.377h.46Zm.478.121h.309V-.269h.147V-1.277h.308V-1.4h-.764Zm1.27,1.009h.147V-1.4h-.147ZM18.455-1.4v.9l-.593-.9h-.147v1.13h.147v-.9l.593.9H18.6V-1.4Zm1.234-.011a.557.557,0,0,0-.567.576.555.555,0,0,0,.567.575.547.547,0,0,0,.554-.505V-.877h-.607v.12h.45a.381.381,0,0,1-.4.366.409.409,0,0,1-.416-.442.41.41,0,0,1,.416-.444.36.36,0,0,1,.343.207h.176A.534.534,0,0,0,19.689-1.41Z" transform="translate(-0.067 8.073)" fill="#c1c1c1"/>
    </g>
    <g id="Group_11" data-name="Group 11" transform="translate(0 0.059)">
      <path id="Path_88" data-name="Path 88" d="M117.561,240.157a.78.78,0,0,1-.821-.732V224.09a.824.824,0,0,1,1.645-.035v15.282a.783.783,0,0,1-.735.824h-.089Zm.529-3.961-1.017-1.1,7.4-6.684a.745.745,0,0,1,.542-.225.732.732,0,0,1,.52.269.76.76,0,0,1,.225.551.672.672,0,0,1-.269.507Zm7.46,3.847a.748.748,0,0,1-.583.206.735.735,0,0,1-.517-.317l-4.823-5.926,1.166-1.036,4.865,5.99a.713.713,0,0,1-.108,1.081Z" transform="translate(-116.74 -223.269)" fill="#c1c1c1"/>
      <path id="Path_89" data-name="Path 89" d="M204.52,240.208a6.022,6.022,0,0,1-3.071-.792,5.819,5.819,0,0,1-2.152-2.152,6.04,6.04,0,0,1-.789-3.093,6.155,6.155,0,0,1,.767-3.071,5.679,5.679,0,0,1,5.071-2.941,5.531,5.531,0,0,1,2.618.618,5.248,5.248,0,0,1,1.882,1.632v-6.357a.8.8,0,0,1,.238-.615.916.916,0,0,1,1.211,0,.824.824,0,0,1,.238.615V234.26a6.243,6.243,0,0,1-.833,3.039,5.771,5.771,0,0,1-2.139,2.13,6,6,0,0,1-3.039.78Zm0-1.515a4.25,4.25,0,0,0,2.241-.6,4.358,4.358,0,0,0,1.556-1.61,4.938,4.938,0,0,0,0-4.617,4.218,4.218,0,0,0-1.556-1.61,4.38,4.38,0,0,0-6,1.534c0,.025-.029.051-.044.076a4.868,4.868,0,0,0,0,4.617,4.376,4.376,0,0,0,1.585,1.61,4.253,4.253,0,0,0,2.218.6Z" transform="translate(-172.594 -223.209)" fill="#c1c1c1"/>
    </g>
    <g id="Group_12" data-name="Group 12" transform="translate(10.311 5.108)">
      <path id="Path_90" data-name="Path 90" d="M153.526,250.98a.859.859,0,0,1-.5-.149.8.8,0,0,1-.317-.39l-3.372-10.122a1.29,1.29,0,0,1,.022-.853.6.6,0,0,1,.605-.317.846.846,0,0,1,.5.152.906.906,0,0,1,.317.475l3.008,9.19h-.475L156.1,239.8a.973.973,0,0,1,.292-.466.767.767,0,0,1,.529-.184.786.786,0,0,1,.529.174.929.929,0,0,1,.292.475l2.659,8.953h-.368l2.941-8.975a.808.808,0,0,1,.8-.634.634.634,0,0,1,.634.358.973.973,0,0,1,0,.808l-3.337,10.132a.849.849,0,0,1-.292.39.792.792,0,0,1-.488.149.9.9,0,0,1-.507-.149.669.669,0,0,1-.292-.39l-2.725-9.038h.26l-2.725,9.038a.732.732,0,0,1-.3.4A.849.849,0,0,1,153.526,250.98Z" transform="translate(-149.275 -239.14)" fill="#c1c1c1"/>
    </g>
    <circle id="Ellipse_59" data-name="Ellipse 59" cx="0.963" cy="0.963" r="0.963" transform="translate(40.869 6.958)" fill="#c1c1c1"/>
    <circle id="Ellipse_60" data-name="Ellipse 60" cx="0.963" cy="0.963" r="0.963" transform="translate(40.869 10.384)" fill="#c1c1c1"/>
    <circle id="Ellipse_61" data-name="Ellipse 61" cx="0.963" cy="0.963" r="0.963" transform="translate(40.869 13.62)" fill="#c1c1c1"/>
  </g>
</svg>
