<svg xmlns="http://www.w3.org/2000/svg" width="73.556" height="73.602" viewBox="0 0 73.556 73.602">
  <g id="nanotechnology" transform="translate(-8.5 503.813)">
    <path id="Path_10806" data-name="Path 10806" d="M43.9-503.692a6.539,6.539,0,0,0-3.8,2.957,8.358,8.358,0,0,0-.52,1.382l-.193.788-1.843.461a32.292,32.292,0,0,0-9.094,3.834l-1.308.817-.669-.416a5.836,5.836,0,0,0-6.523.253,5.837,5.837,0,0,0-2.407,5.171,6.024,6.024,0,0,0,1.085,3.046c.193.208.134.371-.624,1.56a32.388,32.388,0,0,0-3.834,9.109l-.461,1.843-.788.193a5.911,5.911,0,0,0-3.938,3.3,4.121,4.121,0,0,0-.476,2.407,4.121,4.121,0,0,0,.476,2.407,5.911,5.911,0,0,0,3.938,3.3l.788.193.461,1.843A32.388,32.388,0,0,0,18-450.138c.758,1.189.817,1.352.624,1.56A6.527,6.527,0,0,0,18-447.448a5.872,5.872,0,0,0,1.947,7.088,5.789,5.789,0,0,0,6.375.342l.832-.505,1.308.832a32.342,32.342,0,0,0,9.139,3.834l1.783.446.193.788a5.911,5.911,0,0,0,3.3,3.938,4.121,4.121,0,0,0,2.407.475,4.121,4.121,0,0,0,2.407-.475,5.911,5.911,0,0,0,3.3-3.938l.193-.788,1.843-.461a32.424,32.424,0,0,0,9.079-3.819l1.308-.832.832.505a5.885,5.885,0,0,0,8.8-5.5,6.1,6.1,0,0,0-1.1-3.061c-.193-.208-.134-.371.624-1.56a32.388,32.388,0,0,0,3.834-9.109l.461-1.843.788-.193a5.911,5.911,0,0,0,3.938-3.3,4.121,4.121,0,0,0,.476-2.407,4.121,4.121,0,0,0-.476-2.407,5.911,5.911,0,0,0-3.938-3.3l-.788-.193-.461-1.843a32.387,32.387,0,0,0-3.834-9.109c-.758-1.189-.817-1.352-.624-1.56a6.02,6.02,0,0,0,1.085-3.031A5.982,5.982,0,0,0,70.079-494a7.151,7.151,0,0,0-2.972-.773,7.218,7.218,0,0,0-3.15.951l-.535.372-1.308-.817a31.283,31.283,0,0,0-9.094-3.834l-1.843-.475-.193-.773a5.869,5.869,0,0,0-3.254-3.923A6.732,6.732,0,0,0,43.9-503.692Zm2.482,2.407a3.937,3.937,0,0,1,2.467,3.388,3.743,3.743,0,0,1-3.566,3.566,3.743,3.743,0,0,1-3.566-3.566,3.251,3.251,0,0,1,1.114-2.452A3.28,3.28,0,0,1,46.377-501.285Zm-6.36,6.018a6.042,6.042,0,0,0,4.621,3.254l.906.1.966,3.849.966,3.849-.476.238a7.457,7.457,0,0,0-1.293,1.1l-.817.862-7.816-2.838-7.8-2.853.059-.892a4.26,4.26,0,0,0-.282-1.991l-.371-1.085,1.248-.743a29.22,29.22,0,0,1,7.7-3.269c.906-.223,1.709-.416,1.8-.431S39.78-495.727,40.017-495.267Zm12.958-.4a28.864,28.864,0,0,1,7.549,3.21l1.352.8-.371,1.07a5.959,5.959,0,0,0-.089,3.4c.089.371-.059.476-3.343,2.348-1.887,1.07-3.477,1.947-3.522,1.947a4.327,4.327,0,0,1-.713-.52,6.381,6.381,0,0,0-3.165-1.352l-.906-.1L48.8-488.7l-.951-3.819.713-.476a5.537,5.537,0,0,0,2.021-2.348c.208-.416.446-.773.55-.773S52.054-495.906,52.975-495.668Zm-28.442,3.447a4.24,4.24,0,0,1,2.3,2.392,3.491,3.491,0,0,1-3.4,4.473,3.208,3.208,0,0,1-2.7-1.248A3.522,3.522,0,0,1,24.534-492.221Zm44.178.163a3.64,3.64,0,0,1,1.932,2.779,3.631,3.631,0,0,1-1.947,3.6,3.843,3.843,0,0,1-3.135.015,3.561,3.561,0,0,1-1.857-4.072,2.832,2.832,0,0,1,.951-1.545,4.785,4.785,0,0,1,1.278-.936A5.013,5.013,0,0,1,68.712-492.057Zm-32.35,9.481,7.8,2.838.015,1.144v1.129L40.6-475.786l-3.581,1.679-.713-.7a8.845,8.845,0,0,0-1.709-1.159,4.19,4.19,0,0,0-2.407-.461H30.775L28.962-480.3l-1.8-3.878.55-.609a2.4,2.4,0,0,1,.7-.609C28.486-485.415,32.068-484.137,36.362-482.577ZM65-483.32a6.584,6.584,0,0,0,4.176.03l.773-.312.743,1.248a27.459,27.459,0,0,1,2.244,4.547,33.3,33.3,0,0,1,1.471,4.978c0,.089-.357.342-.8.535a6.568,6.568,0,0,0-1.5,1.055,5.061,5.061,0,0,1-.817.684c-.045,0-3.522-1.56-7.727-3.477l-7.638-3.477-.015-1.248a8.855,8.855,0,0,0-.119-1.6c-.119-.357.015-.446,3.418-2.392l3.537-2.021.7.565A7.422,7.422,0,0,0,65-483.32Zm-42.038.371a5.123,5.123,0,0,0,1.456-.059l.609-.134,1.813,3.878,1.813,3.893-.7.713a6.6,6.6,0,0,0-1.635,3.3,5.079,5.079,0,0,1-.119.8c-.015,0-1.367.267-2.987.594s-3.061.594-3.21.594-.327-.208-.446-.461a6.571,6.571,0,0,0-2.541-2.422c-.476-.238-.862-.49-.862-.594s.193-.906.431-1.8a29.952,29.952,0,0,1,3.3-7.757l.728-1.2.758.282A7.081,7.081,0,0,0,22.959-482.948Zm28.174.684a3.937,3.937,0,0,1,2.467,3.388,3.742,3.742,0,0,1-3.566,3.566,3.251,3.251,0,0,1-2.452-1.114,3.213,3.213,0,0,1,0-4.9A3.281,3.281,0,0,1,51.133-482.265Zm-5.424,7.43a6.5,6.5,0,0,0,2.838,1.649,1.949,1.949,0,0,1,.906.416c.074.119.327,2.184.58,4.592s.49,4.532.52,4.711c.059.267-.045.371-.609.624a7.346,7.346,0,0,0-1.233.743l-.55.446-5.216-3.373-5.2-3.358.223-.817A5.941,5.941,0,0,0,38.1-471l-.074-.966,3.581-1.664c1.976-.921,3.611-1.679,3.641-1.679A4.794,4.794,0,0,1,45.709-474.835Zm16.955,3,7.638,3.477-.015,1.233-.03,1.219-6.4,2.571-6.419,2.571-.773-.788a5.432,5.432,0,0,0-2.794-1.635,1.757,1.757,0,0,1-.877-.4c-.074-.119-.327-2.184-.58-4.592s-.49-4.532-.52-4.7c-.059-.267.074-.386.758-.728a5.95,5.95,0,0,0,1.441-1.04,3.265,3.265,0,0,1,.773-.639C54.952-475.3,58.458-473.75,62.664-471.833ZM33.3-473.943a4.413,4.413,0,0,1,2.288,2.288,3.255,3.255,0,0,1-.936,3.551,3.255,3.255,0,0,1-3.551.936,4.413,4.413,0,0,1-2.288-2.288,3.255,3.255,0,0,1,.936-3.551A3.281,3.281,0,0,1,33.3-473.943Zm-17.832,3.566a4.413,4.413,0,0,1,2.288,2.288,3.255,3.255,0,0,1-.936,3.551,3.213,3.213,0,0,1-4.9,0,3.213,3.213,0,0,1,0-4.9A3.281,3.281,0,0,1,15.469-470.377Zm61.816,0a3.937,3.937,0,0,1,2.467,3.388,3.742,3.742,0,0,1-3.566,3.566,3.743,3.743,0,0,1-3.566-3.566,3.251,3.251,0,0,1,1.114-2.452A3.281,3.281,0,0,1,77.286-470.377Zm-50.152,2.868a5.8,5.8,0,0,0,1.768,1.857l.327.223-2.392,7.207-2.407,7.207L23.3-451a5.545,5.545,0,0,0-1.917.327l-.773.3-.743-1.263a28.945,28.945,0,0,1-3.284-7.7c-.238-.892-.431-1.709-.431-1.8s.386-.357.847-.594a6.154,6.154,0,0,0,3.254-4.458l.089-.788.773-.163c3.685-.758,4.978-1.01,5.29-1.025S26.852-468.044,27.134-467.509Zm15.038,4.815,4.681,3.031-.208.758a6.4,6.4,0,0,0-.134,1.724l.059.981-9.064,3.982c-8.336,3.655-9.079,3.968-9.213,3.715a5.788,5.788,0,0,0-.877-.981l-.743-.713,2.392-7.177,2.407-7.192,1.114-.089a6.492,6.492,0,0,0,3.4-1.337l.446-.371.535.312C37.254-465.874,39.6-464.359,42.172-462.694Zm29.764-.208a6.451,6.451,0,0,0,1.649,1.2c.446.208.817.461.817.565a36.44,36.44,0,0,1-1.635,5.364,24.879,24.879,0,0,1-2.021,4.027l-.817,1.367-.773-.312a5.167,5.167,0,0,0-2.036-.3,5.1,5.1,0,0,0-3.165.877l-.565.371-2.853-2.407c-1.575-1.337-2.868-2.422-2.883-2.422s.149-.49.342-1.055a5.132,5.132,0,0,0,.327-1.991l-.015-.951,6.375-2.556c3.507-1.412,6.39-2.586,6.4-2.586A9.985,9.985,0,0,1,71.936-462.9ZM53.51-460.867a3.937,3.937,0,0,1,2.467,3.388,3.742,3.742,0,0,1-3.566,3.566,3.743,3.743,0,0,1-3.566-3.566,3.251,3.251,0,0,1,1.114-2.452A3.281,3.281,0,0,1,53.51-460.867Zm-5.364,7.445a6.657,6.657,0,0,0,.966.847l.327.223L47.73-447.21l-1.724,5.141-1.114.089a5.937,5.937,0,0,0-4.874,3.269,3.074,3.074,0,0,1-.535.847,34.223,34.223,0,0,1-5.216-1.56,24.972,24.972,0,0,1-4.235-2.1l-1.352-.8.371-1.07a4.688,4.688,0,0,0,.3-1.843l-.045-.773,9.064-4.012c4.993-2.2,9.079-4.012,9.109-4.027A6.039,6.039,0,0,1,48.146-453.422Zm10.922,3.135,2.808,2.363-.282.758a5.413,5.413,0,0,0-.089,3.774l.371,1.085-1.248.743a28.266,28.266,0,0,1-7.46,3.195c-1.025.282-1.932.505-2.036.505s-.357-.371-.58-.832a6.62,6.62,0,0,0-1.976-2.288l-.327-.223,1.709-5.141,1.724-5.141,1.144-.089a4.682,4.682,0,0,0,2.11-.594,5.133,5.133,0,0,1,1.144-.505C56.185-452.664,57.537-451.579,59.068-450.286ZM25.009-448.3a3.593,3.593,0,0,1,1.828,4.146,4.019,4.019,0,0,1-2.407,2.407,3.466,3.466,0,0,1-3.507-.892,3.486,3.486,0,0,1-.847-3.67,4.153,4.153,0,0,1,2.274-2.244A4.277,4.277,0,0,1,25.009-448.3Zm43.123-.238a3.934,3.934,0,0,1,2.392,2.392,3.466,3.466,0,0,1-.892,3.507,3.466,3.466,0,0,1-3.507.892,4.019,4.019,0,0,1-2.407-2.407,3.613,3.613,0,0,1,2.511-4.428A3.473,3.473,0,0,1,68.132-448.533Zm-21.755,9.064a3.937,3.937,0,0,1,2.467,3.388,3.742,3.742,0,0,1-3.566,3.566,3.742,3.742,0,0,1-3.566-3.566,3.251,3.251,0,0,1,1.114-2.452A3.281,3.281,0,0,1,46.377-439.469Z"/>
  </g>
</svg>
