<svg xmlns="http://www.w3.org/2000/svg" width="98.971" height="61.457" viewBox="0 0 98.971 61.457">
  <g id="nano-coating" transform="translate(-0.167 415)">
    <path id="Path_10804" data-name="Path 10804" d="M65.067-414.729a110.852,110.852,0,0,0-5.878,10.113c-.1.367.425,1.431,2.436,4.911,1.972,3.442,2.514,4.544,2.4,4.815-.1.193-1.083,1.914-2.2,3.848l-2.03,3.5-4.525-.039-4.544-.058-2.436-4.235a45.38,45.38,0,0,0-2.823-4.505c-.29-.213-1.45-.251-6.168-.213-3.191.039-5.936.116-6.091.213-.232.1-.677-.406-1.876-2.127-3.152-4.544-7.425-9.436-9.282-10.693a3.293,3.293,0,0,0-1.528-.58c-1.972,0-8.083,6.922-12.956,14.7a68.192,68.192,0,0,0-4.815,9.378c-.348.986-.348,1.141-.077,1.6.7,1.238,2.088.986,2.707-.5A72.389,72.389,0,0,1,18.969-405.2c1.238-1.238,1.547-1.47,1.837-1.315.773.425,4.718,4.95,6.922,7.947.425.58,1.392,2.011,2.166,3.152l1.392,2.088-1.644,2.842-1.624,2.842-5.24.1c-4.911.1-5.26.116-5.588.483-.213.213-1.566,2.475-3.036,5.027-1.895,3.287-2.668,4.815-2.668,5.221a78.745,78.745,0,0,0,5.82,10.268c.406.309,11.641.387,12.2.077a36.789,36.789,0,0,0,2.842-4.525l2.494-4.351,1.6-.019h1.586v1.74a17.41,17.41,0,0,1-12.027,16.359,17.932,17.932,0,0,1-13.265-.967A17.864,17.864,0,0,1,3.577-369.6a24.871,24.871,0,0,1-.29-7.7c.155-1.122.135-1.315-.213-1.74a1.513,1.513,0,0,0-2.166-.058c-.715.889-.986,5.55-.483,8.489A20.559,20.559,0,0,0,15.7-354.07a25.937,25.937,0,0,0,7.831.387,20.458,20.458,0,0,0,17.4-19.859v-1.818h1.412c1.257,0,1.47.058,1.876.483a1.428,1.428,0,0,0,2.32-1.624c-.155-.29.271-1.141,2.069-4.254l2.243-3.887,4.447.039,4.467.058,2.185,3.771c1.2,2.069,2.185,3.829,2.185,3.925,0,.077-.986,1.837-2.166,3.906l-2.185,3.771H50.777l-.329-.619c-.773-1.45-1.74-1.876-2.707-1.2-.677.464-.561,1.431.348,2.978a7.468,7.468,0,0,0,1.025,1.489c.116.077,2.572.193,5.434.251l5.221.1,2.436,4.235a47.627,47.627,0,0,0,2.881,4.583c.406.348.889.367,6.13.367,5.608,0,5.666,0,6.149-.445a97.8,97.8,0,0,0,5.82-10c.1-.387-.387-1.373-2.4-4.892-1.392-2.417-2.533-4.447-2.533-4.525,0-.1.986-1.856,2.185-3.925l2.185-3.771,5.26-.1c4.312-.077,5.3-.155,5.53-.387a107.985,107.985,0,0,0,5.724-10.21A90.33,90.33,0,0,0,93.4-405.332l-.445-.483-5.182-.058-5.163-.058-2.417-4.177c-1.334-2.3-2.591-4.351-2.784-4.544-.348-.329-.851-.348-6.188-.348C66.749-414.981,65.318-414.923,65.067-414.729Zm12.839,6.478L80.13-404.4l-2.243,3.887-2.243,3.887h-.831c-1.044,0-1.547.251-1.8.909-.406,1.1.464,1.992,1.934,1.992h.735l2.166,3.751c1.18,2.05,2.146,3.829,2.146,3.964,0,.116-.986,1.914-2.166,3.983l-2.185,3.771H66.749l-2.243-3.887-2.243-3.887,2.224-3.848c2.166-3.751,2.224-3.848,2.842-3.848a1.55,1.55,0,0,0,1.644-1.47,1.353,1.353,0,0,0-1.508-1.431h-.715L64.584-400.4c-1.2-2.069-2.2-3.829-2.224-3.906a37.893,37.893,0,0,1,2.146-3.983l2.185-3.809h8.992ZM93.8-399.105l2.243,3.887-2.185,3.79-2.185,3.79-4.544.058-4.525.039-2.03-3.5c-1.122-1.934-2.108-3.674-2.2-3.867-.135-.271.309-1.18,1.914-3.983,1.141-1.992,2.166-3.751,2.282-3.887.135-.174,1.3-.232,4.583-.232h4.389Zm-47.684,9.282,2.185,3.809-2.243,3.867L43.8-378.261H40.606l-.329-1.566a48.5,48.5,0,0,0-4.6-11.641,9.932,9.932,0,0,1-.928-1.992c0-.232.657-.271,4.583-.232l4.583.058ZM34.3-387.813a46.761,46.761,0,0,1,2.862,7.464c.271.986.483,1.876.483,1.953a3.232,3.232,0,0,1-1.392.1l-1.392-.058-2.185-3.771c-1.2-2.069-2.185-3.829-2.185-3.906a19.676,19.676,0,0,1,2.572-4.08A17.385,17.385,0,0,1,34.3-387.813Zm-4.215,6.98c1.218,2.108,2.2,3.906,2.2,4.022,0,.1-.967,1.837-2.146,3.867L28-369.269l-4.525.058-4.525.039-2.088-3.6c-1.141-1.972-2.108-3.732-2.166-3.925a71.951,71.951,0,0,1,4.235-7.715c.155-.174,1.315-.232,4.583-.232h4.37Zm47.761,9.224c1.18,2.05,2.146,3.829,2.146,3.964s-.986,1.914-2.166,3.983l-2.185,3.771H66.749l-2.185-3.771c-1.18-2.069-2.166-3.848-2.166-3.983s.967-1.914,2.146-3.983l2.146-3.732h8.992Z" transform="translate(0)"/>
    <path id="Path_10805" data-name="Path 10805" d="M56.205-335.995a63.782,63.782,0,0,0-6.168,9.32c-.541,1.218.019,2.262,1.218,2.243.657-.019.967-.329,1.895-1.934a80.291,80.291,0,0,1,4.621-6.961,6.413,6.413,0,0,0,1.373-2.32A1.418,1.418,0,0,0,57.694-337C57.153-337,56.921-336.845,56.205-335.995Z" transform="translate(-40.06 -62.917)"/>
  </g>
</svg>
