<svg xmlns="http://www.w3.org/2000/svg" width="59.824" height="53.165" viewBox="0 0 59.824 53.165">
  <g id="right-quote-sign" transform="translate(1.012 1.136)">
    <path id="Path_3759" data-name="Path 3759" d="M578.069,108.226H560.044a2.966,2.966,0,0,1-2.965-2.965V87.237a2.966,2.966,0,0,1,2.965-2.965h8.627q-.169-7.08-3.285-11.337a17.86,17.86,0,0,0-7.429-5.562,2.96,2.96,0,0,1-1.47-3.979l2.135-4.506a2.964,2.964,0,0,1,3.86-1.447,32.962,32.962,0,0,1,9.943,6.451A25.03,25.03,0,0,1,579.2,74.679q1.832,6.012,1.832,16.412v14.171A2.966,2.966,0,0,1,578.069,108.226Z" transform="translate(-523.221 -57.197)" fill="none" stroke="#fff" stroke-width="2"/>
    <path id="Path_3760" data-name="Path 3760" d="M6.286,57.445a33.517,33.517,0,0,1,9.9,6.439A24.9,24.9,0,0,1,23,74.628q1.832,5.968,1.832,16.454v14.171a2.966,2.966,0,0,1-2.965,2.965H3.843a2.966,2.966,0,0,1-2.965-2.965V87.228a2.966,2.966,0,0,1,2.965-2.965H12.47q-.169-7.08-3.285-11.337a17.86,17.86,0,0,0-7.429-5.562,2.96,2.96,0,0,1-1.47-3.979l2.129-4.494A2.973,2.973,0,0,1,6.286,57.445Z" transform="translate(0.001 -57.188)" fill="none" stroke="#fff" stroke-width="2"/>
  </g>
</svg>
