<svg xmlns="http://www.w3.org/2000/svg" width="14.937" height="14.97" viewBox="0 0 14.937 14.97">
  <g id="XMLID_801_" transform="translate(-0.341 14.97) rotate(-90)">
    <path id="XMLID_802_" d="M8.174,99.73H5.168a.241.241,0,0,0-.241.241v9.655a.241.241,0,0,0,.241.241H8.174a.241.241,0,0,0,.241-.241V99.971A.241.241,0,0,0,8.174,99.73Z" transform="translate(-4.689 -94.589)" fill="#fff"/>
    <path id="XMLID_803_" d="M1.983.341A1.981,1.981,0,1,0,3.965,2.322,1.984,1.984,0,0,0,1.983.341Z" transform="translate(0 0)" fill="#fff"/>
    <path id="XMLID_804_" d="M112.178,94.761a3.53,3.53,0,0,0-2.641,1.108v-.627A.241.241,0,0,0,109.3,95h-2.878a.241.241,0,0,0-.241.241V104.9a.241.241,0,0,0,.241.241h3a.241.241,0,0,0,.241-.241V100.12c0-1.61.437-2.237,1.559-2.237,1.222,0,1.319,1.005,1.319,2.32V104.9a.241.241,0,0,0,.241.241h3a.241.241,0,0,0,.241-.241V99.6C116.019,97.208,115.563,94.761,112.178,94.761Z" transform="translate(-101.049 -89.86)" fill="#fff"/>
  </g>
</svg>
