<svg id="youtube_1_" data-name="youtube (1)" xmlns="http://www.w3.org/2000/svg" width="15.146" height="15.146" viewBox="0 0 15.146 15.146">
  <g id="Group_4554" data-name="Group 4554" transform="translate(6.6 6.083)">
    <g id="Group_4553" data-name="Group 4553">
      <path id="Path_3754" data-name="Path 3754" d="M219.6,202.4v2.765l2.548-1.37Z" transform="translate(-219.6 -202.4)" fill="#fff"/>
    </g>
  </g>
  <g id="Group_4556" data-name="Group 4556">
    <g id="Group_4555" data-name="Group 4555">
      <path id="Path_3755" data-name="Path 3755" d="M11.348,0H3.787A3.8,3.8,0,0,0,0,3.8V11.36a3.8,3.8,0,0,0,3.787,3.787h7.561a3.807,3.807,0,0,0,3.8-3.8V3.8A3.807,3.807,0,0,0,11.348,0Zm.914,7.946c0,.793-.072,1.6-.072,1.6a2.181,2.181,0,0,1-.361.974,1.307,1.307,0,0,1-.938.421c-1.322.1-3.306.108-3.306.108s-2.464-.036-3.222-.108a1.536,1.536,0,0,1-1.046-.421,2.034,2.034,0,0,1-.361-.974s-.072-.805-.072-1.6V7.2c0-.793.072-1.6.072-1.6a2.181,2.181,0,0,1,.361-.974A1.334,1.334,0,0,1,4.255,4.2c1.334-.1,3.318-.108,3.318-.108s1.983.012,3.306.108a1.383,1.383,0,0,1,.95.421,2.064,2.064,0,0,1,.361.986s.072.805.072,1.6Z" fill="#fff"/>
    </g>
  </g>
</svg>
